0
SECTION
2
HEADER
9
$INSUNITS
70
1
9
$ACADVER
1
AC1014
9
$HANDSEED
5
FFFF
0
ENDSEC
0
SECTION
2
TABLES
0
TABLE
2
VPORT
5
8
100
AcDbSymbolTable
0
ENDTAB
0
TABLE
2
LTYPE
5
5
100
AcDbSymbolTable
0
LTYPE
5
14
100
AcDbSymbolTableRecord
100
AcDbLinetypeTableRecord
2
BYBLOCK
70
0
0
LTYPE
5
15
100
AcDbSymbolTableRecord
100
AcDbLinetypeTableRecord
2
BYLAYER
70
0
0
ENDTAB
0
TABLE
2
LAYER
5
2
100
AcDbSymbolTable
70
2
0
LAYER
5
50
100
AcDbSymbolTableRecord
100
AcDbLayerTableRecord
2
0
70
0
6
CONTINUOUS
0
ENDTAB
0
TABLE
2
STYLE
5
3
100
AcDbSymbolTable
70
1
0
STYLE
5
11
100
AcDbSymbolTableRecord
100
AcDbTextStyleTableRecord
2
STANDARD
70
0
0
ENDTAB
0
TABLE
2
VIEW
5
6
100
AcDbSymbolTable
70
0
0
ENDTAB
0
TABLE
2
UCS
5
7
100
AcDbSymbolTable
70
0
0
ENDTAB
0
TABLE
2
APPID
5
9
100
AcDbSymbolTable
70
2
0
APPID
5
12
100
AcDbSymbolTableRecord
100
AcDbRegAppTableRecord
2
ACAD
70
0
0
ENDTAB
0
TABLE
2
DIMSTYLE
5
A
100
AcDbSymbolTable
70
1
0
ENDTAB
0
TABLE
2
BLOCK_RECORD
5
1
100
AcDbSymbolTable
70
1
0
BLOCK_RECORD
5
1F
100
AcDbSymbolTableRecord
100
AcDbBlockTableRecord
2
*MODEL_SPACE
0
BLOCK_RECORD
5
1B
100
AcDbSymbolTableRecord
100
AcDbBlockTableRecord
2
*PAPER_SPACE
0
ENDTAB
0
ENDSEC
0
SECTION
2
BLOCKS
0
BLOCK
5
20
100
AcDbEntity
100
AcDbBlockBegin
2
*MODEL_SPACE
0
ENDBLK
5
21
100
AcDbEntity
100
AcDbBlockEnd
0
BLOCK
5
1C
100
AcDbEntity
100
AcDbBlockBegin
2
*PAPER_SPACE
0
ENDBLK
5
1D
100
AcDbEntity
100
AcDbBlockEnd
0
ENDSEC
0
SECTION
2
ENTITIES
0
LWPOLYLINE
5
100
100
AcDbEntity
8
0
100
AcDbPolyline
90
4
70
1
43
0.0
10
7.3437500000000187
20
5.0156250000000071
10
6.1562500000000187
20
5.0156250000000071
10
6.1562500000000187
20
3.9843750000000071
10
7.3437500000000187
20
3.9843750000000075
0
LWPOLYLINE
5
101
100
AcDbEntity
8
0
100
AcDbPolyline
90
26
70
1
43
0.0
10
7.9999999999999991
20
0.25000000000000211
42
-0.41421356237309509
10
7.7499999999999973
20
4.3709567898628207e-17
10
1.906250000000002
20
1.7483827159451283e-16
42
0.31471956858290057
10
1.7422499999999612
20
0.23474241201795415
10
1.7422499999999612
20
0.65624999999999889
10
1.8124999999999614
20
0.65624999999999889
10
1.8124999999999614
20
1.1249999999999991
10
3.0624999999999991
20
1.1249999999999989
42
0.41421356237309359
10
3.3124999999999991
20
1.3749999999999984
10
3.312499999999992
20
5.375
10
7.7500000000000027
20
5.3749999999999964
42
-0.41421356237309587
10
8.000000000000016
20
5.1249999999999831
10
8.000000000000016
20
3.8749999999999791
42
-0.41421356237309509
10
7.7500000000000355
20
3.6249999999999987
10
5.7500000000000622
20
3.6249999999999987
42
0.41421356237309753
10
5.5000000000000142
20
3.3749999999999534
10
5.500000000000016
20
3.1249999999999996
42
0.41421356237309914
10
5.7500000000000187
20
2.8749999999999991
10
7.7500000000000027
20
2.8749999999999996
42
-0.41421356237309587
10
8.0000000000000053
20
2.6249999999999969
10
8.0000000000000036
20
1.974999999999999
10
4.0624999999999973
20
1.9749999999999994
42
0.41421356237309337
10
3.8124999999999996
20
1.7250000000000016
10
3.8124999999999996
20
1.3749999999999984
42
0.41421356237309481
10
4.0624999999999982
20
1.1249999999999998
10
8
20
1.1250000000000033
0
LWPOLYLINE
5
102
100
AcDbEntity
8
0
100
AcDbPolyline
90
6
70
1
43
0.0
10
4.0624999999999982
20
1.1249999999999998
42
-0.41421356237309509
10
3.8124999999999996
20
1.3749999999999984
10
3.8124999999999996
20
1.7250000000000016
42
-0.41421356237309337
10
4.0624999999999973
20
1.9749999999999994
10
8.0000000000000036
20
1.9749999999999994
10
8
20
1.1250000000000036
0
LWPOLYLINE
5
103
100
AcDbEntity
8
0
100
AcDbPolyline
90
14
70
1
43
0.0
10
1.5702499999999613
20
0.23474241201792442
10
1.5702499999999613
20
0.65624999999999867
10
1.4999999999999614
20
0.65624999999999856
10
1.4999999999999614
20
1.1249999999999989
10
1.3431795788203634e-16
20
1.1249999999999991
10
5.2451481478353848e-16
20
5.1249999999999991
42
-0.4142135623730952
10
0.25000000000000128
20
5.3749999999999991
10
3.312499999999992
20
5.3749999999999991
10
3.3124999999999991
20
1.3749999999999984
42
-0.41421356237309381
10
3.0624999999999991
20
1.1249999999999989
10
1.8124999999999614
20
1.1249999999999989
10
1.8124999999999616
20
0.65624999999999856
10
1.7422499999999614
20
0.65624999999999856
10
1.7422499999999614
20
0.23474241201795409
42
0.17741381374489018
0
LWPOLYLINE
5
104
100
AcDbEntity
8
0
100
AcDbPolyline
90
8
70
1
43
0.0
10
1.4999999999999614
20
1.1249999999999991
10
1.4999999999999614
20
0.65624999999999878
10
1.5702499999999613
20
0.65624999999999878
10
1.5702499999999613
20
0.23474241201792442
42
0.31471956858280353
10
1.4062500000000022
20
1.1010551576010387e-16
10
0.24999999999999986
20
0
42
-0.41421356237309515
10
0
20
0.24999999999999989
10
1.7483827159451283e-16
20
1.1249999999999989
0
LWPOLYLINE
5
105
100
AcDbEntity
8
0
100
AcDbPolyline
90
4
70
1
43
0.0
10
6.9062500000000178
20
4.1875000000000098
10
6.9062500000000178
20
4.8125000000000098
10
6.5937500000000187
20
4.8125000000000098
10
6.5937500000000187
20
4.1875000000000098
0
LWPOLYLINE
5
106
100
AcDbEntity
8
0
100
AcDbPolyline
90
4
70
1
43
0.0
10
6.3593749999999654
20
3.9843750000000075
10
6.3593750000000275
20
5.015625000000008
10
7.1406249999999991
20
5.015625000000008
10
7.1406249999999716
20
3.9843750000000071
0
ENDSEC
0
SECTION
2
OBJECTS
0
DICTIONARY
5
C
100
AcDbDictionary
3
ACAD_GROUP
350
D
3
ACAD_MLINESTYLE
350
17
0
DICTIONARY
5
D
100
AcDbDictionary
0
DICTIONARY
5
1A
330
C
100
AcDbDictionary
0
DICTIONARY
5
17
100
AcDbDictionary
0
ENDSEC
0
EOF
